<svg id="Capa_1" enable-background="new 0 0 512 512" height="512" viewBox="0 0 512 512" width="512" xmlns="http://www.w3.org/2000/svg"><g><g clip-rule="evenodd" fill-rule="evenodd"><path d="m117.294 339.506c6.066 14.91 49.522 6.974 75.516 16.725 9.326 3.515 13.039.68 14.626-8.419 4.677-27.383 33.138-61.059 23.273-73.786-9.865-12.728-22.791 8.107-30.388 0s28.545-62.05 11.594-71.745c-16.979-9.666-24.208 9.752-33.846 2.892-9.61-6.831 29.338-62.929 7.228-79.427-22.139-16.525-33.081 14.287-40.649 10.743-7.597-3.543-2.438-45.553-25.286-48.104-13.918-1.56-21.713 17.716-27.836 16.554-16.044-3.061-21.771-31.833-44.958-18.85-22.819 13.578-.765 32.938-6.151 48.358-2.041 5.896-22.649 2.977-28.262 15.817-9.213 21.062 29.764 37.616 29.055 45.949-.737 8.334-32.882 2.41-29.651 29.821 3.232 27.411 71.293 21.713 72.398 33.477 1.134 11.765-19.304 8.334-19.418 27.865-.085 19.53 64.716 15.193 67.92 25.823 3.233 10.66-21.26 11.425-15.165 26.307z" fill="#b3e59f"/><path d="m207.437 347.812c4.677-27.383 33.138-61.059 23.273-73.786-9.865-12.728-22.791 8.107-30.388 0s28.545-62.05 11.594-71.745c-16.979-9.666-24.208 9.752-33.846 2.892-7.683-5.471 15.704-42.463 14.031-65.48-43.257 12.019-79.059 43.909-79.881 92.523 0 9.27 5.301 16.441 14.23 18.965 5.556 1.559 5.33 2.749 5.33 8.504.028 21.996 5.442 49.379 13.124 69.959 2.098 5.641 4.451 11.196 7.087 16.582l.396.766c.539 1.105 1.077 2.183 1.645 3.26 13.266.879 27.638 1.814 38.778 5.981 9.326 3.512 13.039.677 14.627-8.421z" fill="#95d6a4"/><path d="m401.215 339.506c-6.066 14.91-49.521 6.974-75.516 16.725-9.326 3.515-13.04.68-14.627-8.419-4.677-27.383-33.137-61.059-23.272-73.786 9.865-12.728 22.79 8.107 30.388 0 7.597-8.107-28.545-62.05-11.594-71.745 16.979-9.666 24.207 9.752 33.846 2.892 9.609-6.831-29.339-62.929-7.229-79.427 22.139-16.525 33.081 14.287 40.65 10.743 7.597-3.543 2.438-45.553 25.285-48.104 13.919-1.56 21.714 17.716 27.836 16.554 16.044-3.061 21.771-31.833 44.958-18.85 22.819 13.578.766 32.938 6.151 48.358 2.041 5.896 22.649 2.977 28.262 15.817 9.212 21.062-29.764 37.616-29.056 45.949.737 8.334 32.882 2.41 29.651 29.821s-71.292 21.713-72.398 33.477c-1.134 11.765 19.305 8.334 19.418 27.865.085 19.53-64.716 15.193-67.919 25.823-3.231 10.66 21.261 11.425 15.166 26.307z" fill="#b3e59f"/><path d="m401.215 339.506c-6.066 14.91-49.521 6.974-75.516 16.725-7.115 2.692-10.999 1.672-13.096-3.033 25.711-4.989 59.074-.766 64.347-13.691 6.095-14.882-18.397-15.648-15.193-26.306 3.231-10.63 68.032-6.293 67.918-25.823-.085-19.531-20.523-16.101-19.389-27.865 1.105-11.764 69.166-6.065 72.397-33.477 3.232-27.411-28.913-21.487-29.65-29.821-.709-8.333 38.268-24.888 29.055-45.949-5.613-12.841-26.22-9.921-28.261-15.817-5.244-14.995 15.477-33.732-4.394-47.226 5.726-4.563 12.472-6.746 22.507-1.133 22.819 13.578.766 32.938 6.151 48.358 2.041 5.896 22.649 2.977 28.262 15.817 9.212 21.062-29.764 37.616-29.056 45.949.737 8.334 32.882 2.41 29.651 29.821s-71.292 21.713-72.398 33.477c-1.134 11.765 19.305 8.334 19.418 27.865.085 19.53-64.716 15.193-67.919 25.823-3.231 10.659 21.261 11.424 15.166 26.306z" fill="#95d6a4"/><path d="m362.692 252.057c-.114 47.112-14.429 102.586-50.373 135.411-8.646 7.881-17.433 13.635-28.431 17.66-6.152 2.239-4.196 5.386-7.03 10.772-3.487 6.604-10.262 10.205-17.604 10.403-9.751-.255-16.81-5.896-19.417-15.251-1.248-4.422-1.417-4.564-5.868-6.15-25.54-8.958-45.695-34.413-57.317-57.912-14.485-29.254-20.75-62.419-20.835-94.933l101.992-4.081z" fill="#f1c395"/><path d="m362.692 252.057c-.114 47.112-14.429 102.586-50.373 135.411-8.646 7.881-17.433 13.635-28.431 17.66-6.152 2.239-4.196 5.386-7.03 10.772-3.487 6.604-10.262 10.205-17.604 10.403-4.762-.142-8.872-1.53-12.132-4.025 2.211-1.643 4.11-3.771 5.471-6.378 2.834-5.386.878-8.532 7.03-10.772 10.999-4.025 19.786-9.779 28.432-17.66 35.943-32.825 50.259-88.299 50.372-135.411z" fill="#e8b888"/><path d="m382.024 232.214c.284 10.829-8.476 19.843-19.332 19.843h-206.874c-10.857 0-19.616-9.014-19.304-19.843.907-55.049 46.659-88.639 97.343-96.264 7.71-1.135 4.536-3.146 7.087-10.177 2.834-7.767 10.375-11.735 18.311-12.104 9.978.482 17.546 6.038 19.418 16.102 1.19 6.463 1.19 5.584 8.051 6.548 19.077 2.749 38.551 10.432 54.397 21.373 25.284 17.66 40.534 43.37 40.903 74.522z" fill="#b2a17d"/><path d="m381.996 232.214c.312 10.829-8.447 19.843-19.304 19.843h-24.265c10.828 0 19.616-9.014 19.304-19.843-.34-31.152-15.59-56.862-40.876-74.523-15.846-10.941-35.32-18.624-54.398-21.373-6.86-.964-6.86-.085-8.079-6.548-.964-5.329-3.572-9.383-7.257-12.103 3.43-2.467 7.739-3.799 12.132-3.998 9.978.482 17.546 6.038 19.418 16.102 1.19 6.463 1.19 5.584 8.051 6.548 19.077 2.749 38.551 10.432 54.397 21.373 25.286 17.66 40.536 43.37 40.877 74.522z" fill="#a39474"/></g><path d="m367.908 242.732c2.891-3.005 3.401-6.123 3.345-9.78-.057-3.26-.312-6.491-.737-9.694-.481-3.515-1.219-6.973-2.154-10.375-1.077-3.996 1.276-8.106 5.244-9.184 3.997-1.078 8.107 1.275 9.185 5.244 1.105 3.939 1.956 8.05 2.522 12.302.596 4.309.907 8.901.907 13.238 0 7.2-2.892 13.805-7.597 18.623-3.203 3.317-7.257 5.783-11.793 7.115-.794 31.437-7.483 60.661-18.397 85.181 4.053-.368 8.107-.651 12.076-.906 15.222-.992 28.771-1.899 30.501-6.123 1.02-2.523-2.183-4.678-5.188-6.662-6.86-4.592-13.294-8.872-10.233-18.963 2.721-8.958 17.065-11.141 33.223-13.578 15.959-2.41 34.385-5.159 34.356-10.063-.028-6.604-4.395-9.185-8.136-11.423-6.548-3.855-12.189-7.2-11.253-17.15.992-10.318 14.485-12.699 30.841-15.563 17.773-3.117 40.281-7.058 41.585-18.084 1.36-11.509-7.994-14.202-14.853-16.186-7.824-2.239-14.117-4.054-14.825-12.104-.567-6.832 5.612-11.991 13.124-18.284 8.703-7.284 20.183-16.895 16.498-25.284-1.814-4.195-8.419-5.783-13.663-7.059-6.888-1.673-12.586-3.033-14.769-9.298-2.835-8.107-.624-15.646 1.616-23.216 2.325-7.795 4.649-15.675-4.536-21.146-9.212-5.046-14.854.851-20.409 6.719-5.442 5.726-10.886 11.452-19.333 13.039-6.463 1.247-10.516-3.005-15.392-8.136-3.742-3.939-8.391-8.844-12.982-8.334-9.1 1.021-11.651 15.789-13.607 26.958-1.701 9.638-3.09 17.575-9.298 20.494-7.313 3.401-12.019-1.105-17.858-6.746-5.131-4.961-12.161-11.735-21.487-4.791-1.786 1.333-2.863 3.261-3.402 5.585-.482 2.098-.595 4.479-.425 7.086 14.23 7.796 26.419 17.915 35.717 29.963 2.523 3.26 1.928 7.965-1.36 10.488-3.26 2.522-7.965 1.927-10.488-1.333-9.383-12.132-21.686-21.458-35.377-28.233-13.634-6.718-28.658-10.913-43.512-12.756-5.045-.396-6.86-4.252-6.888-8.702 0-3.515-1.417-6.689-3.685-8.957-2.296-2.296-5.471-3.714-8.986-3.714s-6.689 1.418-8.986 3.686c-2.268 2.296-3.685 5.471-3.685 9.014 0 4.252-1.701 8.023-6.548 8.617-25.427 3.119-51.053 12.869-69.875 30.699-16.158 15.308-25.965 35.519-26.136 58.961 0 3.402.936 6.293 3.345 8.787 2.098 2.154 4.96 3.516 8.163 3.601h207.13c3.231-.002 6.207-1.249 8.475-3.573zm-27.582 118.601c-14.684 25.568-34.583 44.334-57.374 52.724-1.219 5.272-3.94 9.979-7.711 13.607-4.96 4.819-11.764 7.768-19.219 7.768-7.483 0-14.258-2.948-19.219-7.768-3.742-3.628-6.463-8.306-7.711-13.578-15.902-5.867-30.416-16.809-42.747-31.605-5.301-6.35-10.177-13.437-14.627-21.147-6.747-.965-14.117-1.446-21.175-1.899-20.154-1.333-38.098-2.523-43.371-15.393-5.641-13.833 2.891-19.53 10.771-24.803 2.098-1.39 4.337-1.673 4.195-2.154-.028-.085-9.95-1.446-21.118-3.118-21.912-3.316-47.197-7.115-47.112-24.917.085-15.08 8.391-20.013 15.506-24.236 2.154-1.275 3.997-2.381 3.969-2.892-.113-1.02-8.335-.453-18.539-2.238-22.621-3.969-51.251-8.986-53.859-31.04-2.834-24.122 13.578-28.856 25.626-32.314 2.324-.681 3.827 3.175 4.025.991.057-.906-3.571-2.012-7.823-5.584-12.386-10.347-28.77-24.068-20.635-42.691 4.819-11.027 15.449-13.578 23.925-15.619 2.494-.623 5.187-1.332 4.252-5.867-.482-2.438-1.219-5.159-2.013-7.881-3.94-13.322-7.909-26.787 11.253-38.211 17.461-10.006 26.731-3.571 38.92 9.27 1.701 1.785 3.316 3.686 5.102 5.074 4.904 3.855 5.868 1.984 7.909-.17 6.038-6.322 13.55-14.259 25.512-12.898 20.211 2.24 23.896 23.301 26.674 39.203.737 4.082 1.814 5.84 3.94 3.799 8.731-8.476 20.75-17.773 38.92-4.224 4.904 3.657 7.71 8.532 9.042 14.229.255 1.135.454 2.297.595 3.516 10.176-4.082 21.146-7.115 32.684-8.986 1.049-5.471 3.77-10.375 7.597-14.201 5.018-5.018 11.934-8.136 19.559-8.136 7.597 0 14.485 3.118 19.502 8.136 3.827 3.799 6.52 8.731 7.597 14.201 11.537 1.843 22.507 4.876 32.684 8.958.142-1.19.34-2.353.624-3.487 1.304-5.697 4.139-10.572 9.042-14.229 16.668-12.444 28.092-5.556 36.681 2.154 1.445 1.275 2.806 2.608 4.082 3.827 1.276 1.275 2.183-6.123 2.381-7.257 2.778-15.676 6.888-35.319 26.363-37.503 11.962-1.332 19.503 6.576 25.512 12.898 1.757 1.87 2.891 4.082 7.795.255 1.814-1.417 3.486-3.345 5.215-5.159 5.33-5.613 10.688-11.254 17.746-13.295 5.585-1.587 12.189-.936 20.693 3.742 8.391 4.224 14.995 12.273 14.995 21.997.028 5.414-1.616 10.941-3.26 16.469-1.02 3.431-2.069 6.86-2.268 9.808-.085 1.248 1.842 3.316 4.507 3.94 8.476 2.069 19.106 4.62 23.925 15.648 8.447 19.275-10.035 34.441-23.528 45.07-1.305 1.021-2.126 1.871-.907 2.184 12.047 3.486 28.46 8.191 25.625 32.371-2.608 22.054-31.238 27.071-53.859 31.039-10.176 1.786-18.397 1.248-18.511 2.24-.028.51 1.814 1.615 3.969 2.862 7.086 4.224 15.392 9.128 15.449 24.236.113 17.802-25.172 21.601-47.084 24.917-11.168 1.672-21.062 3.033-21.09 3.118-.142.481 2.098.794 4.167 2.154 7.909 5.272 16.441 10.97 10.772 24.803-5.244 12.841-23.216 14.032-43.427 15.364-6.97.482-14.255.963-21.115 1.928zm-176.685-15.959c-3.289-7.371-6.208-15.166-8.674-23.33-1.19-3.968 1.049-8.135 5.018-9.326 3.94-1.189 8.107 1.049 9.297 5.018 6.605 21.742 16.441 40.621 28.574 55.191 11.537 13.832 25.087 23.697 39.771 28.232 3.289.992 5.613 3.486 5.726 7.059.113 3.401 1.559 6.463 3.855 8.674s5.386 3.571 8.844 3.571c3.401 0 6.52-1.36 8.788-3.571 2.523-2.438 3.685-5.386 3.883-8.844.142-3.062 2.211-5.812 5.301-6.747 21.969-6.633 41.386-25.144 55.361-51.108 13.125-24.378 21.374-55.162 22.422-88.923h-191.568c.085 2.92.227 5.782.425 8.589.369 5.414.907 10.715 1.644 15.846.539 4.11-2.324 7.852-6.406 8.419s-7.852-2.296-8.419-6.378c-.765-5.584-1.361-11.197-1.757-16.866-.227-3.571-.397-7.115-.51-10.658-4.507-1.304-8.561-3.798-11.764-7.087-5.074-5.188-7.824-12.16-7.625-19.417.227-27.723 11.764-51.562 30.841-69.619 7.229-6.859 15.563-12.841 24.775-17.887.17-2.607.085-4.989-.397-7.087-.567-2.324-1.615-4.279-3.43-5.612-9.326-6.973-16.356-.198-21.486 4.763-5.84 5.641-10.573 10.176-17.83 6.774-6.236-2.919-7.626-10.856-9.326-20.522-1.956-11.169-4.507-25.908-13.607-26.93-4.563-.51-9.241 4.422-12.982 8.334-4.876 5.131-8.901 9.354-15.392 8.136-8.447-1.616-13.861-7.313-19.333-13.067-5.556-5.84-11.197-11.764-20.466-6.662-9.1 5.471-6.775 13.323-4.479 21.09 2.24 7.598 4.451 15.137 1.616 23.272-2.154 6.236-7.852 7.597-14.74 9.27-5.273 1.247-11.878 2.863-13.72 7.059-3.656 8.39 7.824 18 16.527 25.257 7.512 6.293 13.691 11.451 13.096 18.34-.68 7.994-6.945 9.808-14.768 12.047-6.86 1.984-16.215 4.678-14.854 16.242 1.304 10.999 23.784 14.939 41.585 18.057 16.328 2.863 29.821 5.244 30.785 15.591.935 9.922-4.706 13.267-11.225 17.122-3.742 2.238-8.079 4.818-8.136 11.423-.028 4.904 18.397 7.683 34.385 10.092 16.129 2.409 30.473 4.592 33.194 13.55 3.062 10.119-3.373 14.399-10.233 18.963-3.005 1.984-6.237 4.139-5.188 6.662 1.701 4.224 15.279 5.102 30.558 6.123 3.937.251 7.991.534 12.044.875z"/></g>
</svg>